<svg width="18" height="18" viewBox="0 0 18 18" fill="none" xmlns="http://www.w3.org/2000/svg">
<path d="M17.8875 15.8182L14.175 12.2182C15.2088 10.9022 15.7627 9.29069 15.75 7.63645C15.7564 6.63189 15.5571 5.6361 15.1637 4.70681C14.7702 3.77752 14.1904 2.93322 13.4578 2.22288C12.7253 1.51254 11.8546 0.950292 10.8963 0.568738C9.93794 0.187184 8.91103 -0.00608251 7.87508 0.000145885C6.83914 -0.00608251 5.81223 0.187184 4.85389 0.568738C3.89556 0.950292 3.02488 1.51254 2.29235 2.22288C1.55981 2.93322 0.979989 3.77752 0.586511 4.70681C0.193034 5.6361 -0.00627259 6.63189 0.000150443 7.63645C-0.00627259 8.641 0.193034 9.63679 0.586511 10.5661C0.979989 11.4954 1.55981 12.3397 2.29235 13.05C3.02488 13.7603 3.89556 14.3226 4.85389 14.7042C5.81223 15.0857 6.83914 15.279 7.87508 15.2727C9.58103 15.2851 11.2429 14.7479 12.6 13.7455L16.3125 17.3455L17.8875 15.8182ZM2.25013 7.63645C2.24276 6.91816 2.38323 6.20567 2.6633 5.54068C2.94337 4.87568 3.35742 4.27153 3.88122 3.76361C4.40502 3.25568 5.02804 2.85418 5.71382 2.58259C6.3996 2.31101 7.13436 2.1748 7.87508 2.18195C8.61581 2.1748 9.35057 2.31101 10.0363 2.58259C10.7221 2.85418 11.3451 3.25568 11.8689 3.76361C12.3927 4.27153 12.8068 4.87568 13.0869 5.54068C13.3669 6.20567 13.5074 6.91816 13.5 7.63645C13.5074 8.35473 13.3669 9.06722 13.0869 9.73222C12.8068 10.3972 12.3927 11.0014 11.8689 11.5093C11.3451 12.0172 10.7221 12.4187 10.0363 12.6903C9.35057 12.9619 8.61581 13.0981 7.87508 13.0909C7.13436 13.0981 6.3996 12.9619 5.71382 12.6903C5.02804 12.4187 4.40502 12.0172 3.88122 11.5093C3.35742 11.0014 2.94337 10.3972 2.6633 9.73222C2.38323 9.06722 2.24276 8.35473 2.25013 7.63645Z" fill="white"/>
</svg>
