<svg width="44" height="34" viewBox="0 0 44 34" fill="none" xmlns="http://www.w3.org/2000/svg">
<g clip-path="url(#clip0_22_484)">
<g clip-path="url(#clip1_22_484)">
<path d="M37.2768 2.84749C34.4283 1.51725 31.3825 0.550485 28.1981 0C27.8071 0.705702 27.3502 1.65489 27.0352 2.40996C23.6502 1.90186 20.2963 1.90186 16.9736 2.40996C16.6586 1.65489 16.1914 0.705702 15.7968 0C12.609 0.550485 9.55974 1.5208 6.71119 2.85454C0.965631 11.5204 -0.591894 19.971 0.18687 28.3016C3.99763 31.142 7.69071 32.8674 11.3215 33.9965C12.2179 32.7651 13.0174 31.456 13.7062 30.0764C12.3944 29.5789 11.138 28.965 9.95087 28.2522C10.2658 28.0193 10.5739 27.7758 10.8715 27.5253C18.1123 30.9056 25.9795 30.9056 33.1338 27.5253C33.4349 27.7758 33.7429 28.0193 34.0544 28.2522C32.8638 28.9685 31.604 29.5824 30.2922 30.08C30.9809 31.456 31.777 32.7686 32.6769 34C36.3112 32.8709 40.0077 31.1455 43.8184 28.3016C44.7322 18.6443 42.2575 10.2713 37.2768 2.84749ZM14.6926 23.1783C12.519 23.1783 10.7365 21.153 10.7365 18.6866C10.7365 16.2202 12.481 14.1914 14.6926 14.1914C16.9044 14.1914 18.6868 16.2167 18.6488 18.6866C18.6522 21.153 16.9044 23.1783 14.6926 23.1783ZM29.3127 23.1783C27.1391 23.1783 25.3565 21.153 25.3565 18.6866C25.3565 16.2202 27.1009 14.1914 29.3127 14.1914C31.5243 14.1914 33.3069 16.2167 33.2688 18.6866C33.2688 21.153 31.5243 23.1783 29.3127 23.1783Z" fill="white"/>
</g>
</g>
<defs>
<clipPath id="clip0_22_484">
<rect width="44" height="34" fill="white"/>
</clipPath>
<clipPath id="clip1_22_484">
<rect width="176" height="34" fill="white"/>
</clipPath>
</defs>
</svg>
