<svg width="1440" height="839" viewBox="0 0 1440 839" fill="none" xmlns="http://www.w3.org/2000/svg">
<path d="M110.577 157.5C54.9521 106.948 0 0 0 0V841H1441V330C1441 330 1406.49 289.357 1376.46 276C1332 256.231 1299.84 267.882 1251.87 276C1189.83 286.5 1158.86 303.537 1097.76 303C1021.79 302.332 978.935 286.269 908.63 257.5C844.37 231.205 815.245 202.547 755.024 168C700.986 137 663.083 121.989 600.917 126.5C539.195 130.979 506.807 154.696 455.316 189L454.327 189.659C423.419 210.251 405.675 222.073 370.257 232.5C315.714 248.557 278.968 249.322 224.656 232.5C173.719 216.723 150.029 193.355 110.577 157.5Z" fill="url(#paint0_linear_145_432)" fill-opacity="0.5"/>
<path d="M110.577 157.5C54.9521 106.948 0 0 0 0V841H1441V330C1441 330 1406.49 289.357 1376.46 276C1332 256.231 1299.84 267.882 1251.87 276C1189.83 286.5 1158.86 303.537 1097.76 303C1021.79 302.332 978.935 286.269 908.63 257.5C844.37 231.205 815.245 202.547 755.024 168C700.986 137 663.083 121.989 600.917 126.5C539.195 130.979 506.807 154.696 455.316 189L454.327 189.659C423.419 210.251 405.675 222.073 370.257 232.5C315.714 248.557 278.968 249.322 224.656 232.5C173.719 216.723 150.029 193.355 110.577 157.5Z" fill="#24292E" fill-opacity="0.2"/>
<defs>
<linearGradient id="paint0_linear_145_432" x1="29.0201" y1="193" x2="1449.7" y2="802.715" gradientUnits="userSpaceOnUse">
<stop offset="0.104167" stop-color="#3D67D2"/>
<stop offset="0.354167" stop-color="#499DFF"/>
<stop offset="0.755208" stop-color="#37AEE2"/>
<stop offset="1" stop-color="#3D67D2"/>
</linearGradient>
</defs>
</svg>
