<svg width="24" height="19" viewBox="0 0 24 19" fill="none" xmlns="http://www.w3.org/2000/svg" opacity=".5">
<path d="M0 1.7C0 0.761116 0.761108 0 1.69995 0H22.1C23.0389 0 23.8 0.761116 23.8 1.7C23.8 2.63888 23.0389 3.4 22.1 3.4H1.69995C0.761108 3.4 0 2.63888 0 1.7Z" fill="white"/>
<path d="M0 9.09999C0 8.16111 0.761108 7.39999 1.69995 7.39999H22.1C23.0389 7.39999 23.8 8.16111 23.8 9.09999C23.8 10.0389 23.0389 10.8 22.1 10.8H1.69995C0.761108 10.8 0 10.0389 0 9.09999Z" fill="white"/>
<path d="M1.69995 14.8C0.761108 14.8 0 15.5611 0 16.5C0 17.4389 0.761108 18.2 1.69995 18.2H22.1C23.0389 18.2 23.8 17.4389 23.8 16.5C23.8 15.5611 23.0389 14.8 22.1 14.8H1.69995Z" fill="white"/>
</svg>
