<svg width="34" height="35" viewBox="0 0 34 35" fill="none" xmlns="http://www.w3.org/2000/svg">
<path d="M17.0149 8.58312C16.7159 8.58312 16.4202 8.59882 16.1288 8.62954C15.8375 8.66026 15.5501 8.70579 15.2677 8.76555C14.9853 8.82531 14.7078 8.89932 14.436 8.98666L13.638 9.28828L12.8783 9.66592L12.1613 10.115L11.4915 10.6308L10.8733 11.2088L10.3113 11.8445L9.8097 12.5333L9.37292 13.2707L9.00585 14.0519C8.89551 14.3191 8.79737 14.593 8.71241 14.8726C8.62745 15.1523 8.55556 15.4377 8.49739 15.7281C8.43923 16.0186 8.39501 16.314 8.36505 16.6137C8.3351 16.9134 8.32007 17.2175 8.32007 17.525C8.32007 17.8324 8.33532 18.1365 8.36505 18.4362C8.39462 18.7336 8.43879 19.0292 8.49739 19.3219C8.55556 19.6134 8.62745 19.8978 8.71241 20.1774C8.79737 20.4571 8.8954 20.7309 9.00585 20.9982L9.37292 21.7794L9.8097 22.5166L10.3113 23.2055L10.8733 23.8413L11.4915 24.4193L12.1613 24.9351L12.8783 25.3841L13.638 25.7618L14.436 26.0634L15.2677 26.2845C15.5523 26.3448 15.8398 26.3902 16.1288 26.4206C16.4233 26.4515 16.719 26.467 17.0149 26.4669C17.3139 26.4669 17.6096 26.4512 17.9009 26.4206C18.19 26.3902 18.4774 26.3448 18.7621 26.2845L19.5939 26.0634L20.3919 25.7618L21.1515 25.3841L21.8685 24.9351L22.5384 24.4193L23.1566 23.8413L23.7187 23.2055L24.2203 22.5166L24.6571 21.7794L25.0241 20.9982L25.3176 20.1774C25.4025 19.8978 25.4744 19.6123 25.5326 19.3219L25.6649 18.4361C25.6948 18.1364 25.71 17.8323 25.71 17.5249C25.71 17.2174 25.6948 16.9133 25.6649 16.6136C25.6354 16.3163 25.5912 16.0207 25.5326 15.728C25.4744 15.4365 25.4025 15.1523 25.3176 14.8725L25.0241 14.0517L24.6571 13.2706L24.2203 12.5332L23.7187 11.8444L23.1566 11.2087L22.5384 10.6307L21.8685 10.1149L21.1515 9.66581L20.3919 9.28817L19.5939 8.98655L18.7621 8.76544L17.9009 8.62943C17.6065 8.59848 17.3108 8.58299 17.0149 8.58301V8.58312ZM17.0149 11.6695C17.2126 11.6695 17.4077 11.6796 17.5998 11.6996L18.1662 11.7878L18.7134 11.9313L19.2373 12.1272L19.7354 12.3728L20.2038 12.6649L20.6416 13.0009L21.0453 13.3779L21.4118 13.793L21.7386 14.2433L22.0227 14.7261L22.2612 15.2385C22.3329 15.4139 22.3965 15.5936 22.4518 15.7774C22.5071 15.9611 22.5537 16.149 22.5912 16.3402C22.6288 16.5315 22.6566 16.7262 22.677 16.9239L22.7061 17.5255C22.7061 17.7288 22.6963 17.9295 22.677 18.1273C22.6576 18.3251 22.629 18.5198 22.5912 18.7109C22.5534 18.9021 22.5068 19.0899 22.4518 19.2738L22.2612 19.8127L22.0227 20.3251L21.7386 20.8078L21.4118 21.2582L21.0453 21.6733L20.6416 22.0503L20.2038 22.3863L19.7354 22.6784L19.2373 22.924L18.7134 23.1198L18.1662 23.2634L17.5998 23.3515C17.4054 23.3716 17.2102 23.3816 17.0148 23.3816C16.8194 23.3816 16.6241 23.3716 16.4297 23.3515L15.8633 23.2634C15.6774 23.2246 15.4948 23.1766 15.3161 23.1198L14.7921 22.924L14.294 22.6784L13.8257 22.3863L13.3878 22.0503L12.9841 21.6733L12.6176 21.2582L12.2908 20.8078L12.0068 20.3251L11.7682 19.8127L11.5776 19.2738L11.4382 18.7109L11.3525 18.1273C11.333 17.9273 11.3232 17.7265 11.3233 17.5255C11.3232 17.3246 11.333 17.1238 11.3525 16.9239C11.3718 16.7262 11.4004 16.5314 11.4382 16.3402C11.4756 16.1504 11.5222 15.9626 11.5777 15.7775L11.7683 15.2386L12.0069 14.7262L12.291 14.2434L12.6177 13.7931L12.9842 13.378L13.3879 13.001L13.8258 12.665L14.2942 12.3729L14.7923 12.1273C14.9637 12.0532 15.1386 11.9878 15.3163 11.9314L15.8635 11.7879C16.0494 11.7491 16.2387 11.7195 16.4299 11.6997C16.6243 11.6796 16.8196 11.6696 17.015 11.6696L17.0149 11.6695Z" fill="url(#paint0_radial_22_565)"/>
<path d="M26.0625 6.03931C25.9935 6.03932 25.9245 6.04291 25.8558 6.05007C25.7871 6.05722 25.7188 6.06792 25.6511 6.08214C25.5835 6.09634 25.5166 6.11404 25.4506 6.13517C25.3847 6.15632 25.3198 6.18087 25.2562 6.20873C25.1926 6.23662 25.1304 6.2678 25.0698 6.30213C25.0092 6.3364 24.9503 6.37378 24.8934 6.41415C24.8364 6.45455 24.7814 6.49789 24.7286 6.54399C24.6758 6.59004 24.6252 6.6388 24.5772 6.69009C24.5291 6.7414 24.4835 6.79518 24.4406 6.85121C24.3977 6.90725 24.3575 6.96548 24.3202 7.02568C24.2829 7.08583 24.2486 7.14788 24.2173 7.21159C24.1859 7.27534 24.1577 7.34068 24.1326 7.40736C24.1076 7.47403 24.0859 7.54195 24.0674 7.61087C24.0489 7.67979 24.0338 7.74962 24.0221 7.8201C24.0104 7.89056 24.002 7.96159 23.9971 8.03291C23.9937 8.08344 23.9919 8.13408 23.9919 8.18473C23.9919 8.25629 23.9954 8.3278 24.0023 8.399C24.0092 8.47017 24.0195 8.54094 24.0332 8.61104C24.0469 8.68113 24.064 8.75048 24.0844 8.81881C24.1048 8.88715 24.1285 8.9544 24.1554 9.0203C24.1823 9.08621 24.2124 9.15069 24.2455 9.21349C24.2786 9.27628 24.3147 9.33732 24.3536 9.39637C24.3926 9.45538 24.4344 9.51234 24.4789 9.56703C24.5234 9.62176 24.5704 9.67415 24.62 9.724C24.6695 9.77383 24.7214 9.82105 24.7755 9.8655C24.8296 9.90999 24.8858 9.95164 24.9439 9.9903C25.002 10.029 25.062 10.0646 25.1235 10.097C25.185 10.1295 25.2481 10.1588 25.3124 10.1847C25.3767 10.2106 25.4423 10.2332 25.5088 10.2523C25.5753 10.2714 25.6427 10.2871 25.7107 10.2992C25.7787 10.3114 25.8473 10.32 25.9161 10.3251C25.9649 10.3287 26.0138 10.3305 26.0626 10.3305C26.1317 10.3305 26.2007 10.327 26.2694 10.3198C26.3381 10.3127 26.4064 10.302 26.474 10.2878C26.5417 10.2736 26.6086 10.2559 26.6746 10.2347C26.7405 10.2136 26.8054 10.189 26.869 10.1612C26.9326 10.1333 26.9948 10.1022 27.0554 10.0679C27.1159 10.0336 27.1748 9.99617 27.2318 9.95577C27.2888 9.9154 27.3438 9.8721 27.3966 9.82604C27.4494 9.77995 27.4999 9.73115 27.548 9.67982C27.5961 9.62851 27.6417 9.57473 27.6846 9.5187C27.7275 9.46266 27.7677 9.40443 27.805 9.34423C27.8422 9.28404 27.8766 9.22196 27.9079 9.15821C27.9392 9.09446 27.9675 9.02912 27.9925 8.96244C28.0175 8.89577 28.0393 8.82785 28.0578 8.75893C28.0762 8.69001 28.0914 8.62019 28.1031 8.5497C28.1148 8.47924 28.1231 8.40821 28.128 8.33689C28.1315 8.28636 28.1332 8.23572 28.1333 8.18507C28.1333 8.11355 28.1298 8.04207 28.1229 7.97091C28.116 7.89974 28.1057 7.82897 28.092 7.75888C28.0783 7.68878 28.0612 7.61944 28.0408 7.55111C28.0204 7.48276 27.9967 7.41551 27.9698 7.34962C27.9429 7.2837 27.9128 7.21922 27.8797 7.15642C27.8466 7.09363 27.8105 7.0326 27.7715 6.97354C27.7325 6.91449 27.6907 6.8575 27.6462 6.80278C27.6017 6.74805 27.5547 6.69566 27.5052 6.6458C27.4557 6.59597 27.4038 6.54875 27.3497 6.50429C27.2956 6.45985 27.2394 6.41824 27.1813 6.37961C27.1232 6.34095 27.0632 6.30532 27.0017 6.27286C26.9402 6.24039 26.8771 6.21113 26.8128 6.18518C26.7485 6.15927 26.6829 6.1367 26.6164 6.11757C26.5499 6.09843 26.4825 6.08275 26.4145 6.07059C26.3464 6.05845 26.2779 6.04984 26.209 6.0448C26.1603 6.04122 26.1114 6.03942 26.0625 6.03942V6.03931Z" fill="url(#paint1_radial_22_565)"/>
<path d="M15.3661 0.0315761C14.4205 0.0300063 13.5765 0.0340423 12.8184 0.0450307L10.7859 0.101094C10.1838 0.128004 9.65184 0.163097 9.17432 0.208508C8.93556 0.231158 8.71031 0.256499 8.49682 0.284418C8.29367 0.310777 8.09106 0.34147 7.88914 0.376475C7.69689 0.410113 7.51445 0.44644 7.33952 0.485909C7.16459 0.525377 6.9975 0.567987 6.8363 0.613734C6.6787 0.658469 6.52234 0.707675 6.36738 0.761294C6.21555 0.813993 6.06741 0.869832 5.92113 0.929483C5.62856 1.04879 5.34318 1.18266 5.04931 1.33269C4.82319 1.44818 4.61427 1.56512 4.41581 1.68891C4.21736 1.8127 4.02936 1.94344 3.84528 2.08584C3.65571 2.2332 3.47298 2.38968 3.29772 2.55475C3.11452 2.72653 2.92739 2.91546 2.73296 3.1266C2.48864 3.39043 2.27635 3.63644 2.08792 3.87784C1.9937 3.99849 1.90547 4.11779 1.82236 4.23777C1.74018 4.356 1.6616 4.47686 1.58676 4.60016C1.5127 4.72238 1.44255 4.84684 1.37545 4.97489C1.30731 5.10514 1.24291 5.23743 1.18233 5.37159C1.05838 5.64563 0.942705 5.94074 0.827247 6.27017C0.741592 6.51371 0.664892 6.76049 0.597311 7.00998C0.528363 7.26495 0.467039 7.5317 0.41236 7.8202C0.357681 8.1087 0.309972 8.41896 0.268037 8.76207C0.222847 9.13817 0.186747 9.51536 0.159768 9.89331C0.12927 10.3088 0.104 10.7661 0.0833042 11.275L0.0342891 12.9673L0.00792973 15.03L0.000305176 17.5234L0.0226343 21.1492L0.0923448 23.8963L0.146044 24.9694L0.21314 25.8585C0.234649 26.0982 0.26156 26.3373 0.293852 26.5757C0.323261 26.7874 0.354849 26.9726 0.388832 27.133C0.457788 27.4589 0.539327 27.782 0.633255 28.1013C0.72319 28.407 0.826038 28.7085 0.941507 29.005C1.055 29.2954 1.17918 29.5755 1.31424 29.8451C1.4493 30.1146 1.59526 30.3736 1.75211 30.6224C1.90896 30.8712 2.0767 31.1098 2.25577 31.3382C2.43463 31.5667 2.62489 31.7854 2.82576 31.9935C3.02694 32.2021 3.23912 32.4005 3.46274 32.5891C3.689 32.7799 3.9242 32.9591 4.16747 33.1262C4.39327 33.2816 4.61667 33.4239 4.8417 33.5545C5.06674 33.6852 5.29373 33.8037 5.52704 33.9114C5.76036 34.0192 5.99955 34.1162 6.24942 34.2034C6.49929 34.2906 6.75961 34.3682 7.03475 34.4371C7.30989 34.5059 7.60115 34.5664 7.9094 34.6191C8.21765 34.6718 8.54715 34.717 8.89918 34.7559C9.25122 34.7948 9.62679 34.8269 10.0303 34.8539C10.4339 34.8808 10.8652 34.9023 11.3287 34.9196C12.0447 34.9463 13.1284 34.9618 14.3782 34.9678L18.4241 34.9594L22.2554 34.9041L23.7121 34.8619L24.6612 34.8117C24.8649 34.7947 25.0642 34.7745 25.2565 34.7508C25.4489 34.7272 25.6386 34.7001 25.8234 34.6694C26.0081 34.6387 26.1887 34.6044 26.3661 34.5663C26.5415 34.5287 26.716 34.4867 26.8894 34.4403C27.0611 34.3955 27.2303 34.3445 27.3979 34.2903C27.5654 34.2362 27.7312 34.1776 27.896 34.1148C28.0617 34.0516 28.2259 33.9843 28.3885 33.9129C28.5522 33.8411 28.7157 33.7644 28.8797 33.683C29.1317 33.5581 29.3345 33.454 29.5126 33.3523C29.6801 33.2577 29.8414 33.1519 29.9956 33.0356C30.1476 32.9204 30.2988 32.7892 30.4731 32.6239C30.6473 32.4586 30.8448 32.2595 31.0894 32.0076C31.3043 31.7865 31.4855 31.5943 31.6418 31.4195C31.7981 31.2447 31.9298 31.0874 32.0453 30.9358C32.1553 30.792 32.2579 30.6422 32.3524 30.4871C32.4447 30.3357 32.5296 30.1785 32.6162 30.0042C32.7465 29.7418 32.8624 29.4988 32.9662 29.2644C33.067 29.0384 33.1591 28.8085 33.2422 28.575C33.3241 28.3434 33.395 28.1079 33.4547 27.8692C33.5162 27.6236 33.5691 27.3644 33.6148 27.08C33.6606 26.7957 33.6993 26.4862 33.7328 26.1406C33.7663 25.7951 33.7949 25.4132 33.8199 24.9841L33.8864 23.5436L33.9435 21.7521L33.9842 19.7563L33.9999 17.6694L33.9635 13.5706L33.9148 11.7348L33.8484 10.1585L33.7656 8.92958C33.7355 8.5876 33.7031 8.31827 33.6686 8.13618C33.6306 7.93498 33.588 7.7347 33.541 7.53552C33.4952 7.34169 33.4449 7.14904 33.3901 6.95773C33.3367 6.77134 33.2787 6.58638 33.2161 6.40304C33.1542 6.22196 33.0886 6.04469 33.02 5.87123C32.9514 5.69777 32.8771 5.52834 32.7998 5.36251C32.7224 5.19667 32.6414 5.03488 32.5563 4.87678C32.4713 4.71868 32.3826 4.5645 32.2899 4.41414C32.1972 4.26378 32.1007 4.11723 32.0002 3.97461C31.9002 3.83244 31.796 3.69352 31.6876 3.55806C31.5797 3.42334 31.4678 3.29216 31.3519 3.16472C31.2361 3.03744 31.1165 2.91396 30.9932 2.79448C30.8698 2.67495 30.7427 2.55924 30.6115 2.44734C30.4799 2.33506 30.3449 2.22704 30.2068 2.1234C30.0671 2.01871 29.9245 1.91843 29.7789 1.82268C29.6314 1.72557 29.4811 1.63299 29.3282 1.54506C29.1726 1.45565 29.0146 1.37084 28.8544 1.29075C28.5884 1.15766 28.3424 1.03959 28.101 0.934866C27.8636 0.830931 27.6216 0.738621 27.3757 0.658249C27.1285 0.578079 26.8711 0.509346 26.5879 0.450031C26.3047 0.390716 25.9959 0.341268 25.6464 0.299221C25.2968 0.257173 24.9066 0.2232 24.4602 0.194944C24.0138 0.166688 23.5118 0.144486 22.9386 0.126545L20.9904 0.0816955L18.5247 0.051758L15.3672 0.0317985L15.3661 0.0315761ZM17.006 3.11527L21.5593 3.14196L23.277 3.17605C23.75 3.18972 24.111 3.20576 24.3226 3.22426C24.5982 3.24814 24.8607 3.27808 25.1118 3.31396C25.3527 3.34821 25.5925 3.39081 25.8307 3.44167C26.0594 3.49101 26.2776 3.54707 26.4864 3.61031C26.6952 3.67355 26.8946 3.74441 27.086 3.82279C27.2774 3.90117 27.4604 3.98739 27.6365 4.0818C27.8112 4.1755 27.981 4.27861 28.1452 4.39071C28.3086 4.50227 28.4661 4.62247 28.619 4.75198C28.7719 4.88149 28.9202 5.0203 29.0649 5.16875C29.2177 5.32539 29.3587 5.48495 29.4886 5.64955C29.6181 5.81313 29.7379 5.98458 29.8473 6.16298C29.958 6.34391 30.0578 6.53171 30.146 6.72529C30.2362 6.92263 30.3172 7.13119 30.39 7.35286C30.4627 7.57454 30.5275 7.81011 30.5849 8.06184C30.6451 8.32871 30.6954 8.59782 30.7359 8.86859C30.7795 9.15563 30.8167 9.46173 30.8483 9.78948C30.8799 10.1172 30.906 10.4667 30.9276 10.8407C30.9448 11.1406 30.9598 11.5364 30.9726 12.0039L31.0045 13.5977L31.0289 17.502L31.0011 21.4025L30.9678 22.9918L30.9219 24.1477C30.8901 24.6889 30.8566 25.1439 30.8165 25.54C30.7964 25.738 30.7746 25.9212 30.7504 26.0931C30.7277 26.2555 30.7009 26.4172 30.6699 26.5782C30.6416 26.725 30.6087 26.8708 30.5713 27.0154C30.5355 27.1535 30.4952 27.2902 30.4505 27.4255C30.4055 27.5614 30.3565 27.6958 30.3036 27.8287C30.2477 27.969 30.1887 28.1079 30.1266 28.2455C30.0714 28.3682 30.0133 28.4877 29.9519 28.6039C29.8911 28.719 29.8266 28.832 29.7584 28.9426C29.6909 29.0521 29.6201 29.1585 29.546 29.2616C29.4724 29.3643 29.3951 29.4642 29.3145 29.5612C29.234 29.6577 29.1502 29.7512 29.0632 29.8415C28.976 29.9317 28.8856 30.0189 28.792 30.103C28.6983 30.187 28.6011 30.2678 28.5006 30.3456C28.4001 30.4234 28.296 30.4981 28.1885 30.5696C28.081 30.6412 27.9701 30.7098 27.8557 30.7753C27.7412 30.8407 27.6231 30.9033 27.5017 30.9629C27.3781 31.0233 27.2528 31.0799 27.126 31.1326C26.9949 31.1871 26.8623 31.2377 26.7284 31.2845C26.4561 31.3801 26.1689 31.4639 25.8665 31.5363C25.5514 31.6112 25.2333 31.6725 24.9132 31.7199C24.7901 31.7384 24.5073 31.7558 24.1021 31.772L22.558 31.8161L18.1804 31.8747L13.5984 31.8821L11.799 31.8623L10.6306 31.8249L9.76904 31.7625C9.50153 31.7393 9.25275 31.7135 9.01965 31.6843C8.78656 31.655 8.56947 31.6224 8.36524 31.5856C8.17171 31.5512 7.97935 31.51 7.7885 31.4623C7.61448 31.4187 7.44224 31.3679 7.2722 31.31C7.10828 31.2539 6.95154 31.1923 6.79904 31.1244C6.64655 31.0566 6.49842 30.9823 6.3517 30.9011C6.20498 30.8199 6.05979 30.7318 5.91296 30.6357C5.80218 30.5632 5.69511 30.4899 5.59207 30.4122C5.48903 30.3345 5.38947 30.257 5.29362 30.1758C5.19777 30.0947 5.10573 30.011 5.01696 29.9249C4.92878 29.8392 4.84362 29.7503 4.76164 29.6583C4.67995 29.5665 4.60185 29.4721 4.52692 29.3744C4.45169 29.2762 4.38 29.1752 4.31201 29.0716C4.24301 28.9664 4.17772 28.8587 4.11628 28.7487C4.05419 28.6377 3.99516 28.5229 3.93906 28.4045C3.88203 28.2838 3.82881 28.1613 3.77949 28.037C3.72938 27.9105 3.68189 27.78 3.63723 27.6453C3.54792 27.3756 3.46949 27.0886 3.40131 26.7824C3.33312 26.4763 3.27496 26.1512 3.22573 25.8047C3.17649 25.4582 3.13684 25.0909 3.10526 24.7005C3.08195 24.4129 3.06343 23.9649 3.04927 23.3998L3.01964 21.39L3.03054 16.2663L3.11626 11.3705L3.18161 9.64551L3.21864 9.07535C3.2315 8.92308 3.24479 8.81028 3.2584 8.74255C3.30328 8.51976 3.34848 8.31244 3.39521 8.11835C3.43886 7.93525 3.48742 7.75342 3.54084 7.57308C3.5916 7.40287 3.64508 7.24343 3.70226 7.09239C3.7574 6.94608 3.81886 6.80238 3.88645 6.66172C3.95246 6.52492 4.02337 6.39396 4.10037 6.26647C4.17738 6.13898 4.26049 6.01531 4.35111 5.8923C4.44174 5.7693 4.53933 5.64787 4.64553 5.52475C4.75173 5.40164 4.86643 5.27729 4.99082 5.14913C5.13579 4.99905 5.28674 4.85522 5.44328 4.71801C5.5911 4.58855 5.74524 4.46696 5.90512 4.35371C6.06229 4.24158 6.2235 4.14179 6.39135 4.05007C6.5592 3.95835 6.73369 3.87549 6.91722 3.80093C7.10076 3.72636 7.29355 3.65965 7.49778 3.5991C7.71234 3.53714 7.92928 3.48429 8.14805 3.44066C8.3781 3.39424 8.62241 3.35376 8.88328 3.31844C9.14415 3.28312 9.42169 3.25263 9.71839 3.22616C9.92534 3.20778 10.282 3.19141 10.7515 3.17761L12.4605 3.14286L17.0067 3.11426L17.006 3.11527Z" fill="url(#paint2_radial_22_565)"/>
<defs>
<radialGradient id="paint0_radial_22_565" cx="0" cy="0" r="1" gradientUnits="userSpaceOnUse" gradientTransform="translate(5.41694 37.5146) rotate(-9.80597) scale(71.9163 44.8633)">
<stop stop-color="white"/>
<stop offset="0.263" stop-color="white"/>
<stop offset="0.609" stop-color="white"/>
<stop offset="1" stop-color="white"/>
</radialGradient>
<radialGradient id="paint1_radial_22_565" cx="0" cy="0" r="1" gradientUnits="userSpaceOnUse" gradientTransform="translate(5.41701 37.5145) rotate(-9.80598) scale(71.9163 44.8633)">
<stop stop-color="white"/>
<stop offset="0.263" stop-color="white"/>
<stop offset="0.609" stop-color="white"/>
<stop offset="1" stop-color="white"/>
</radialGradient>
<radialGradient id="paint2_radial_22_565" cx="0" cy="0" r="1" gradientUnits="userSpaceOnUse" gradientTransform="translate(5.41703 37.5145) rotate(-9.80597) scale(71.9163 44.8633)">
<stop stop-color="white"/>
<stop offset="0.263" stop-color="white"/>
<stop offset="0.609" stop-color="white"/>
<stop offset="1" stop-color="white"/>
</radialGradient>
</defs>
</svg>
