<svg width="33" height="16" viewBox="0 0 33 16" fill="none" xmlns="http://www.w3.org/2000/svg">
<path d="M0 14V16H16.1825V14C16.1825 11.8 12.5414 10 8.09125 10C3.64105 10 0 11.8 0 14Z" fill="white"/>
<path d="M4.72742 1.77771C4.2829 2.43549 4.04565 3.20886 4.04565 4C4.04565 5.06085 4.47186 6.07831 5.23059 6.82843C5.98926 7.57855 7.01831 8 8.09125 8C8.89142 8 9.67358 7.76538 10.3389 7.32587C11.0042 6.88635 11.5227 6.26166 11.8289 5.5307C12.1351 4.7998 12.2153 3.99554 12.0591 3.2196C11.903 2.44373 11.5178 1.73096 10.952 1.17157C10.3862 0.612183 9.66528 0.231201 8.88049 0.0768435C8.09576 -0.0774534 7.28229 0.00170919 6.54303 0.304444C5.80383 0.607239 5.172 1.11993 4.72742 1.77771Z" fill="white"/>
<path d="M28.8232 9.82324L25.4268 6.42676C25.2693 6.26929 25.3808 6 25.6035 6H32.3964C32.6192 6 32.7307 6.26929 32.5732 6.42676L29.1768 9.82324C29.0792 9.92084 28.9208 9.92084 28.8232 9.82324Z" fill="white"/>
</svg>
