<svg width="62" height="62" viewBox="0 0 62 62" fill="none" xmlns="http://www.w3.org/2000/svg">
<path d="M25.3167 45.2084C24.3123 45.2084 24.483 44.8292 24.1366 43.8728L21.1833 34.1536L43.9167 20.6667" fill="#C8DAEA"/>
<path d="M25.3167 45.2084C26.0917 45.2084 26.4339 44.8539 26.8667 44.4334L31 40.4142L25.8442 37.3052" fill="#A9C9DD"/>
<path d="M25.8437 37.3059L38.3367 46.5359C39.7624 47.3225 40.7911 46.9151 41.1463 45.2125L46.2316 21.2487C46.7521 19.1613 45.4359 18.2143 44.0719 18.8335L14.2112 30.3477C12.1729 31.1653 12.1851 32.3025 13.8397 32.8091L21.5026 35.201L39.2432 24.0087C40.0807 23.5008 40.8495 23.7736 40.2186 24.3337" fill="url(#paint0_linear_22_567)"/>
<defs>
<linearGradient id="paint0_linear_22_567" x1="34.8863" y1="31.0025" x2="39.7243" y2="42.0253" gradientUnits="userSpaceOnUse">
<stop stop-color="white"/>
<stop offset="1" stop-color="white"/>
</linearGradient>
</defs>
</svg>
