<svg width="41" height="34" viewBox="0 0 41 34" fill="none" xmlns="http://www.w3.org/2000/svg">
<path d="M36.6934 8.54828C36.7182 8.90995 36.7182 9.27162 36.7182 9.63661C36.7182 20.7583 28.3198 33.5849 12.963 33.5849V33.5783C8.4265 33.5849 3.98428 32.2749 0.165329 29.8049C0.824966 29.8849 1.48791 29.9249 2.15251 29.9266C5.91194 29.9299 9.56392 28.6583 12.5215 26.3166C8.94892 26.2483 5.81606 23.8999 4.72162 20.4716C5.97311 20.7149 7.26263 20.6649 8.49098 20.3266C4.59598 19.5333 1.79376 16.0833 1.79376 12.0766C1.79376 12.0399 1.79376 12.0049 1.79376 11.9699C2.95432 12.6216 4.25376 12.9833 5.58295 13.0233C1.91444 10.5516 0.783636 5.63162 2.99896 1.78495C7.23783 7.04328 13.492 10.2399 20.2057 10.5783C19.5329 7.65495 20.4521 4.59162 22.6211 2.53662C25.9838 -0.650051 31.2724 -0.486718 34.4334 2.90162C36.3032 2.52995 38.0953 1.83828 39.7353 0.858282C39.112 2.80662 37.8076 4.46162 36.0651 5.51328C37.72 5.31662 39.3369 4.86995 40.8595 4.18828C39.7386 5.88162 38.3268 7.35662 36.6934 8.54828Z" fill="white"/>
</svg>
